  <svg width="701.9" height="1672.6" xmlns="http://www.w3.org/2000/svg" xmlns:xlink="http://www.w3.org/1999/xlink"><defs><symbol fill="none" viewBox="0 0 21 20" id="account">
        <path d="M18.7404 18.7501C18.7404 18.7501 15.1048 14.9312 10.6202 14.9312C6.13554 14.9312 2.5 18.7501 2.5 18.7501" fill="none" />
        <path d="M15.7725 6.14559C15.8453 8.92222 13.5972 11.233 10.7512 11.3069C7.90513 11.3807 5.53892 9.18973 5.46608 6.4131C5.39324 3.63648 7.64134 1.32568 10.4874 1.25181C13.3334 1.17793 15.6996 3.36895 15.7725 6.14559Z" fill="none" />
        </symbol><symbol viewBox="0 0 20 20" id="arrow-left">
        <g>
            <path d="M19.3,10H2" fill="none" stroke-linecap="round" />
            <path d="M9.1,17.1L2,10l7.1-7.1" fill="none" />
        </g>
        </symbol><symbol viewBox="0 0 20 20" id="arrow-right">
        <g>
            <path fill="none" d="M0.7,10H18" stroke-linecap="round" />
            <path fill="none" d="M10.9,2.9L18,10l-7.1,7.1" />
        </g>
        </symbol><symbol fill="none" viewBox="0 0 21 20" id="cart">
        <g>
            <path d="M16.6,18.4H4.4L1.8,7.9h17.5L16.6,18.4L16.6,18.4z" fill="none" />
            <path d="M7.2,5V2h6.4v3" fill="none" />
        </g>
        </symbol><symbol viewBox="0 0 20 20" fill="none" id="check-circle">
            <path d="M17.9 9.3v.7c0 1.7-.6 3.4-1.6 4.7-1 1.4-2.4 2.4-4.1 2.8-1.6.5-3.4.4-5-.2-1.6-.6-3-1.7-3.9-3.1-.8-1.3-1.3-3-1.2-4.7.1-1.7.8-3.3 1.9-4.6 1.1-1.3 2.6-2.2 4.3-2.6 1.7-.4 3.4-.2 4.9.5" style="fill:none;stroke-linecap:round;stroke-linejoin:round" vector-effect="non-scaling-stroke" />
            <path d="M17.9 3.4 10 11.3 7.6 9" style="fill:none;stroke-linecap:round;stroke-linejoin:round" vector-effect="non-scaling-stroke" />
        </symbol><symbol viewBox="0 0 20 11" fill="none" id="chevron">
            <path d="M2 2L10 10L18 2" fill="none" vector-effect="non-scaling-stroke" />
        </symbol><symbol viewBox="0 0 14.1 22.3" fill="none" id="chevron-left">
        <path vector-effect="non-scaling-stroke" d="M10.6,3l-8,8l8,8" />
        </symbol><symbol viewBox="0 0 14.1 22.3" id="chevron-right">
        <path vector-effect="non-scaling-stroke" d="M2.6,19l8-8l-8-8" />
        </symbol><symbol viewBox="0 0 20 20" fill="none" id="close"><path d="M3.2 16.8 16.8 3.2M3.2 3.2l13.6 13.6" vector-effect="non-scaling-stroke" /></symbol><symbol viewBox="0 0 51 51" id="espresso">
            <path d="m5.4 31.3 4.4-1.8c3.6-1.5 7.6-1.1 10.8 1 2.8 1.8 6.2 2.3 9.4 1.5l6.4-1.7M15.7 15l-1-1.6c-1.1-1.7-.7-3.7 1-4.9 1.7-1.3 2.1-3.3 1-4.9l-1-1.6M25.2 15l-1-1.6c-1.1-1.7-.7-3.7 1-4.9 1.7-1.3 2.1-3.3 1-4.9l-1-1.6" style="fill:none;stroke-linecap:round;stroke-linejoin:round" />
            <path d="M10.3 45.1C6.7 38.9 4.5 30.7 4.5 22H37c0 8.8-2.2 17-5.8 23.2-.8 1.4-2.3 2.2-3.9 2.2H14.2c-1.6 0-3.1-.9-3.9-2.3h0z" style="fill:none;stroke-linecap:round;stroke-linejoin:round" />
            <path d="M36.8 26.9c2.4-1.3 5.3-1 7.1.8a5.5 5.5 0 0 1 0 8c-2.3 2.2-5.9 2.2-8.2 0l-.5-.5" style="fill:none;stroke-linecap:round;stroke-linejoin:round" />
        </symbol><symbol viewBox="0 0 50 50" fill="none" id="icon-bubble">
        <ellipse cx="18.9" cy="15.4" rx="4.3" ry="4.4" style="stroke-linecap:round;stroke-linejoin:round;stroke-miterlimit:10" transform="rotate(-44.976 18.892 15.406)" vector-effect="non-scaling-stroke" />
        <circle cx="20.5" cy="31.5" r="7.1" style="stroke-linecap:round;stroke-linejoin:round;stroke-miterlimit:10" vector-effect="non-scaling-stroke" />
        <circle cx="33.3" cy="36.6" r="2.4" style="stroke-linecap:round;stroke-linejoin:round;stroke-miterlimit:10" vector-effect="non-scaling-stroke" />
        <circle cx="30.9" cy="24.1" r="5.7" style="stroke-linecap:round;stroke-linejoin:round;stroke-miterlimit:10" vector-effect="non-scaling-stroke" />
        </symbol><symbol viewBox="0 0 50 50" fill="none" id="icon-coffee">
        <path d="m10.1 30.1 3.3-1.4c2.7-1.1 5.8-.8 8.2.8h0c2.1 1.4 4.7 1.8 7.1 1.2l4.9-1.3M17.9 17.6l-.8-1.2c-.8-1.3-.5-2.8.8-3.8h0c1.3-1 1.6-2.5.8-3.8l-.8-1.2M25.1 17.6l-.8-1.2c-.8-1.3-.5-2.8.8-3.8h0c1.3-1 1.6-2.5.8-3.8l-.8-1.2" style="stroke-linecap:round;stroke-linejoin:round;stroke-miterlimit:10" vector-effect="non-scaling-stroke" />
        <path d="M13.8 40.8C11.1 36 9.4 29.7 9.4 22.9H34c0 6.7-1.7 13-4.4 17.8-.6 1.1-1.7 1.7-3 1.7h-9.9c-1.1.1-2.3-.6-2.9-1.6z" style="stroke-linecap:round;stroke-linejoin:round;stroke-miterlimit:10" vector-effect="non-scaling-stroke" />
        <path d="M33.9 26.7c1.8-1 4-.8 5.4.6h0c1.7 1.7 1.7 4.5 0 6.2h0c-1.7 1.7-4.5 1.7-6.2 0l-.4-.4" style="stroke-linecap:round;stroke-linejoin:round;stroke-miterlimit:10" vector-effect="non-scaling-stroke" />
        </symbol><symbol viewBox="0 0 50 50" fill="none" id="icon-cross">
        <circle cx="25" cy="25" r="14.1" style="stroke-linecap:round;stroke-linejoin:round;stroke-miterlimit:10" vector-effect="non-scaling-stroke" />
        <path d="m19.4 19.4 11.2 11.2M30.6 19.4 19.4 30.6" style="stroke-linecap:round;stroke-linejoin:round;stroke-miterlimit:10" vector-effect="non-scaling-stroke" />
        </symbol><symbol viewBox="0 0 50 50" fill="none" id="icon-hands-heart">
            <path d="M25.6 19.3c-.3-.6-.4-1.2-.4-1.7 0-2.8 4-7.5 9.4-6.6 5.4.9 7.6 6.1 11 7.2v20.6c-3.4 0-3.7-3.3-8.9-3.3-3.6 0-6.4 1.6-9.6 3-.9.4-1.9-.2-1.9-1.2-.2-5.5 10.4-5.1 10.4-12.6 0-1.9-1.2-3.9-3.5-3.9-2.1 0-2.9 2.6-4.9 2.6-.8 0-2-.7-2-2.1 0-2.6 3.8-6.4 8.2-5.8 3 .4 4.9 2.9 4.9 2.9" style="stroke-linecap:round;stroke-linejoin:round;stroke-miterlimit:10" vector-effect="non-scaling-stroke" />
            <path d="M24.8 19.3c.3-.6.4-1.2.4-1.7 0-2.8-4-7.5-9.4-6.6-5.4.9-7.6 6.1-11 7.2v20.6c3.4 0 3.7-3.3 8.9-3.3 3.6 0 6.4 1.6 9.6 3 .9.4 1.9-.2 1.9-1.2.2-5.5-10.4-5.1-10.4-12.6 0-1.9 1.2-3.9 3.5-3.9 2.1 0 2.9 2.6 4.9 2.6.8 0 2-.7 2-2.1 0-2.6-3.8-6.4-8.2-5.8-3 .4-4.9 2.9-4.9 2.9" style="stroke-linecap:round;stroke-linejoin:round;stroke-miterlimit:10" vector-effect="non-scaling-stroke" />
        </symbol><symbol viewBox="0 0 50 50" fill="none" id="icon-lily-flower">
        <path d="M23.3 41c-1.8 0-3.3-1.5-3.3-3.3 0-.2-.2-.4-.4-.4h-2.8c-.3 0-.6-.3-.6-.6v-2.9c0-.3.3-.6.6-.6h1.8c.2 0 .4-.1.4-.2.1-.1.2-.3.1-.5-.5-2.2-2.1-4.6-3.9-4.6-2.4 0-3 2.7-3 5 0 .2-.1.4-.3.5-.1 0-.2.1-.3.1-.1 0-.2 0-.4-.1-2.5-1.9-3.7-6-2.7-9.2.8-2.4 2.7-3.7 5.2-3.7 6.1 0 8.5 6.8 8.7 12.6 0 .1.1.2.2.2h.1v-.1c-.1-4.2-1.1-7-2-9.4-.8-2-1.5-4-1.5-6.3 0-5.4 5-8.2 5.2-8.3.4-.2.5-.2.6-.2s.2 0 .3.1c.2.1 5.2 2.9 5.2 8.3 0 2.4-.7 4.3-1.5 6.3-.9 2.4-1.9 5.2-2 9.4v.1h.1c.1 0 .2-.1.2-.2.2-5.8 2.6-12.6 8.7-12.6 2.5 0 4.4 1.4 5.2 3.7 1.1 3.2-.1 7.3-2.7 9.2-.1.1-.2.1-.4.1-.1 0-.2 0-.3-.1-.2-.1-.3-.3-.3-.5 0-2.3-.5-5-3-5-1.8 0-3.4 2.4-3.9 4.6 0 .2 0 .4.1.5.1.1.2.2.4.2h1.8c.3 0 .6.3.6.6v2.9c0 .3-.3.6-.6.6h-2.8c-.2 0-.4.2-.4.4 0 1.8-1.5 3.3-3.3 3.3h-3.1z" style="fill-rule:evenodd;clip-rule:evenodd;stroke-linecap:round;stroke-linejoin:round;stroke-miterlimit:10" vector-effect="non-scaling-stroke" />
        </symbol><symbol viewBox="0 0 50 50" fill="none" id="icon-loop">
        <path d="M29.3 16.6c2.6-2.3 6.4-3.4 9.8-2.5 4.1 1 7.5 4.7 8.1 8.9.6 4.2-1.5 8.7-5.1 10.9-3.4 2.1-8 1.9-11.3-.2-4.3-2.8-5.2-7.9-7-12.2-1.8-4.3-5.5-7.6-10.3-7.6-6 0-10.8 4.8-10.8 10.8s4.8 10.8 10.8 10.8c2.5 0 4.7-.8 6.6-2.2" style="stroke-linecap:round;stroke-linejoin:round;stroke-miterlimit:10" vector-effect="non-scaling-stroke" />
        <path d="m20.7 36.3.6-4.6h-4.6" style="stroke-linecap:round;stroke-linejoin:round;stroke-miterlimit:10" vector-effect="non-scaling-stroke" />
        </symbol><symbol viewBox="0 0 50 50" fill="none" id="icon-maple-leaf">
        <path d="m16.4 35.3 1.1-3.6-7.7-2.8 2.5-2.5-3.2-4.6 5.5.4.9-2.8 5.3 3.1-2.2-9.6 3.4 1.6 3-5.4 3 5.4 3.4-1.6-2.2 9.6 5.3-3.1.9 2.8 5.5-.4-3.2 4.6 2.5 2.5-7.7 2.8 1.1 3.6zM25 35.3h0c0 3.1 2.5 5.6 5.6 5.6" style="stroke-linecap:round;stroke-linejoin:round;stroke-miterlimit:10" vector-effect="non-scaling-stroke" />
        </symbol><symbol viewBox="0 0 50 50" fill="none" id="icon-pin">
        <circle cx="25" cy="19" r="4.1" style="stroke-linecap:round;stroke-linejoin:round;stroke-miterlimit:10" vector-effect="non-scaling-stroke" />
        <path d="M25 35.3s-9.8-9.9-9.8-16.4c0-5.4 4.4-9.8 9.8-9.8s9.8 4.4 9.8 9.8c0 6.5-9.8 16.4-9.8 16.4zM14.5 40.9h21" style="stroke-linecap:round;stroke-linejoin:round;stroke-miterlimit:10" vector-effect="non-scaling-stroke" />
        </symbol><symbol viewBox="0 0 50 50" fill="none" id="icon-plant">
        <path d="M43.7 11c-2.5 3-2.7 9.5-6.2 12.4-2.4 1.9-6.3 2.3-9.3-1.2-1.6-1.9-2-6.1 1.3-8.8s8.2-.7 14.2-2.4z" style="stroke-linecap:round;stroke-linejoin:round;stroke-miterlimit:10" vector-effect="non-scaling-stroke" />
        <path d="M31.2 18.6C26.8 21.9 25 26 25 29.4M6.3 11c2.5 3 2.7 9.5 6.2 12.4 2.4 1.9 6.3 2.3 9.3-1.2 1.6-1.9 2-6.1-1.3-8.8s-8.2-.7-14.2-2.4z" style="stroke-linecap:round;stroke-linejoin:round;stroke-miterlimit:10" vector-effect="non-scaling-stroke" />
        <path d="M18.8 18.6C23.2 21.9 25 26 25 29.4M16.4 39l4.9-7.5c.8-1.3 2.3-2.1 3.8-2.1h0c1.5 0 3 .8 3.8 2.1l4.9 7.5H16.4z" style="stroke-linecap:round;stroke-linejoin:round;stroke-miterlimit:10" vector-effect="non-scaling-stroke" />
        </symbol><symbol viewBox="0 0 50 50" fill="none" id="icon-sparkling">
        <path d="M17.6 20.7V8.5M17.6 41.5V29.3M10 17.3l-1.6-1.6M11.9 24.5H3.6M10 31.7l-1.6 1.5M25.2 17.3l1.5-1.6M23.2 24.5h8.3M25.2 31.7l1.5 1.5M40.7 13.1V9M40.7 22.5v-4.2M37.5 15.5h-2.6M43.8 15.5h2.6" style="stroke-linecap:round;stroke-linejoin:round;stroke-miterlimit:10" vector-effect="non-scaling-stroke" />
        </symbol><symbol viewBox="0 0 50 50" fill="none" id="icon-tea-leaves">
        <path d="M31.5 25.7c2.2-1.1 4.7-1.6 7.3-1.4.6-3.3.3-6.7-.8-9.7-2.8.4-5.5 1.6-7.9 3.4 1.1 2.4 1.6 5 1.4 7.7zM18.4 25.7c-.2-2.6.4-5.3 1.4-7.7-2.3-1.7-5.1-2.9-7.9-3.4-1.2 3-1.4 6.4-.8 9.7 2.6-.2 5.1.2 7.3 1.4z" style="stroke-linecap:round;stroke-linejoin:round;stroke-miterlimit:10" vector-effect="non-scaling-stroke" />
        <path d="M38.8 24.3c-2.5-.2-5.1.3-7.3 1.4M18.4 25.7c-2.2-1.1-4.7-1.6-7.3-1.4" style="fill:none;stroke:#000;stroke-width:2;stroke-linecap:round;stroke-linejoin:round;stroke-miterlimit:10" />
        <path d="M38.8 24.3c-2.5-.2-5.1.3-7.3 1.4-.2 4.2-2.2 8.3-6.5 11.3 0 0 0 0 0 0 10.4 5.7 18.8-2.4 19.6-11.3-1.8-.8-3.8-1.3-5.8-1.4zM18.4 25.7c-2.2-1.1-4.7-1.6-7.3-1.4-2 .1-4 .6-5.8 1.4.8 8.9 9.2 17 19.6 11.3 0 0 0 0 0 0-4.3-3-6.2-7.1-6.5-11.3z" style="stroke-linecap:round;stroke-linejoin:round;stroke-miterlimit:10" vector-effect="non-scaling-stroke" />
        <path d="M25 11.1C17.7 17 14.9 30 25 37c10.1-7 7.3-20 0-25.9z" style="stroke-linecap:round;stroke-linejoin:round;stroke-miterlimit:10" vector-effect="non-scaling-stroke" />
        </symbol><symbol viewBox="0 0 50 50" fill="none" id="icon-yerba-mate">
        <path d="M29.5 40.9c-2.5 0-4.5-2-4.5-4.5" style="stroke-linecap:round;stroke-miterlimit:10" vector-effect="non-scaling-stroke" />
        <path d="M25 28.9s5.2-4.9 5.6-9.9c.4-4.9-2.5-9.9-5.6-9.9s-6.1 5-5.6 9.9c.4 4.9 5.6 9.9 5.6 9.9z" style="stroke-miterlimit:10" vector-effect="non-scaling-stroke" />
        <path d="M25 36.4s7.1.1 10.9-3c3.8-3.2 5.2-8.8 3-11-2.2-2.2-7.8-.8-11 3s-2.9 11-2.9 11z" style="stroke-miterlimit:10" vector-effect="non-scaling-stroke" />
        <path d="M25 36.4s-7.1.1-10.9-3-5.2-8.8-3-11 7.8-.8 11 3 2.9 11 2.9 11z" style="stroke-miterlimit:10" vector-effect="non-scaling-stroke" />
        <path d="M30.6 30.6 25 36.4M19.4 30.6l5.6 5.8M25 36.3V19.7" style="stroke-linecap:round;stroke-miterlimit:10" vector-effect="non-scaling-stroke" />
        </symbol><symbol viewBox="0 0 118 60" id="logo">
            <g>
                <path d="M39.8,30.8H45v28.8h-5.2V30.8z" />
                <path d="M48.8,33c0-1.8,1.4-3.2,3.2-3.2c1.8,0,3.2,1.5,3.2,3.2c0,1.8-1.4,3.2-3.2,3.2C50.2,36.2,48.8,34.8,48.8,33z M49.3,38.6h5.2
                    v21h-5.2V38.6z" />
                <path d="M64.3,57.1L64.3,57.1l-0.1,2.5H59V30.8h5.2c0,0,0,6.9-0.2,10.4h0.1c1.4-2,3.9-3,6.3-3c5.8,0,9.2,4.4,9.2,10.9
                    S76,60,70.5,60C67.9,60,65.6,59,64.3,57.1z M74.1,49.1c0-4.2-2-6.8-5.1-6.8c-3.2,0-5,2.7-5,6.8s2,6.7,5.1,6.7S74.1,53.2,74.1,49.1z
                    " />
                <path d="M82.7,38.6h5.2v3.9H88c0.9-2,3.1-4,6.8-4c0.6,0,1,0.1,1.3,0.2v5.2H96c0,0-0.5-0.2-1.8-0.2c-4.1,0-6.3,2.4-6.3,6.9v9h-5.2
                    V38.6z" />
                <path d="M97.3,49.1c0-6.6,4.4-10.9,10.4-10.9s10.1,4.1,10.1,10.4c0,0.5,0,0.9,0,1.7h-14.9c0,3.6,2.2,5.5,5.1,5.5
                    c2.3,0,3.7-1.1,4.4-2.9h5.2c-0.6,4.1-4.7,7.1-9.7,7.1C101.6,60,97.3,55.3,97.3,49.1z M112.4,46.9c-0.2-2.9-2.1-4.5-4.7-4.5
                    c-2.8,0-4.6,1.8-4.8,4.5H112.4z" />
                <path d="M0,5.6h5.2v2.8h0.1c1.1-1.9,3.4-3.2,5.8-3.2c2.9,0,4.8,1.2,5.9,3.3h0.1c1.5-2.1,4.1-3.3,6.7-3.3c5.3,0,7.9,3.3,7.9,8.2
                    v13.1h-5.2V13.8c0-3-1.5-4.3-3.8-4.3c-2.8,0-4.2,2.3-4.2,5.8v11.4h-5.2V13.7c0-2.8-1.5-4.3-3.8-4.3c-2.8,0-4.1,2.3-4.1,5.8v11.4H0
                    V5.6z" />
                <path d="M34.8,20.8c0-4.8,3.9-6.3,9.5-6.8l4.1-0.3c0-3.3-1.5-4.7-3.8-4.7c-2.6,0-3.8,1.3-3.8,3.3h-5.3c0-4.3,3.7-7.2,9.1-7.2
                    c5.8,0,9.1,3.2,9.1,8.1v9c0,2.7,0.2,3.2,0.7,3.9v0.3h-5c-0.4-0.6-0.6-2-0.6-2.8h-0.1c-1.2,2.2-4,3.2-6.8,3.2
                    C37.7,27,34.8,24.5,34.8,20.8z M48.5,18v-0.9l-4.2,0.4c-2.6,0.3-3.9,1.2-3.9,2.8c0,1.6,1.4,2.7,3.4,2.7
                    C46.8,23.1,48.5,20.9,48.5,18z" />
                <path d="M58.9,21.7V9.6h-3.4v-4h3.4V0h5.2v5.6h3.9v4h-3.9v10.2c0,2.1,0.9,2.6,2.8,2.6c0.4,0,0.9,0,1.1-0.1v4.3
                    c-0.6,0.1-1.7,0.2-2.9,0.2C60.8,26.8,58.9,24.6,58.9,21.7z" />
                <path d="M69.4,16.1c0-6.6,4.4-10.9,10.4-10.9c6,0,10.1,4.1,10.1,10.4c0,0.5,0,0.9,0,1.7H74.9c0,3.6,2.2,5.5,5.1,5.5
                    c2.3,0,3.7-1.1,4.4-2.9h5.2c-0.6,4.1-4.7,7.1-9.7,7.1C73.7,27,69.4,22.3,69.4,16.1z M84.5,13.9c-0.2-2.9-2.1-4.5-4.7-4.5
                    c-2.8,0-4.6,1.8-4.8,4.5H84.5z" />
            </g>
        </symbol><symbol id="logo-copyright" viewBox="0 0 701.9 360">
        <g>
            <g>
                <g>
                    <path d="M1,34.8h31.2v16.4h0.4c6.6-11.5,20.2-18.8,34.3-18.8c17.4,0,28.4,7,35.2,19.5h0.4c9-12.5,24.4-19.5,39.9-19.5
                        c31.5,0,47,19.7,47,49.1v78.2h-31.2V83.3c0-17.6-9-25.8-22.3-25.8c-16.9,0-25.1,13.9-25.1,34.8v67.7H79.6V82.8
                        c0-17-9.2-25.4-22.7-25.4c-16.4,0-24.7,13.9-24.7,34.8v67.7H1V34.8z" />
                    <path d="M208,125.1c0-28.5,23.3-37.6,56.6-40.2l24.4-1.6c0-19.7-8.6-27.8-22.5-27.8c-15.3,0-22.7,8-22.7,19.7h-31.7
                        c0.2-25.4,21.8-42.8,54-42.8c34.7,0,54.2,19.3,54.2,48.5v53.8c0,16.2,1.2,18.8,4.3,23.5v1.6h-29.8c-2.1-3.3-3.5-11.7-3.5-16.4
                        h-0.7c-7.3,13.1-23.9,18.8-40.1,18.8C224.9,162.3,208,147.4,208,125.1z M289.1,108.7v-5.1l-24.9,2.2c-15.5,1.6-23.3,7.3-23.3,17
                        c0,9.8,8.4,16.2,20.2,16.2C278.9,139,289.1,125.9,289.1,108.7z" />
                    <path d="M351.3,130.6V58.6h-20V34.8h20V1.2h31.2v33.6h23.3v23.7h-23.3v60.6c0,12.3,5.4,15.5,16.9,15.5c2.6,0,5.1-0.2,6.3-0.4
                        v25.6c-3.5,0.7-10.1,1.2-17.4,1.2C362.4,161.1,351.3,147.7,351.3,130.6z" />
                    <path d="M413.5,97.4c0-39.1,26.3-64.9,61.7-64.9c34.1,0,59.9,24.7,59.9,61.8c0,3.1,0,5.1-0.2,10.1h-88.5
                        c0,21.7,12.9,32.9,30.5,32.9c13.9,0,22.1-6.3,26-17.4h30.7c-3.3,24.7-28.2,42.3-57.5,42.3C439.1,162.3,413.5,134.3,413.5,97.4z
                         M503.5,84.3c-1.4-17.4-12.7-26.8-28.2-26.8c-16.7,0-27.2,10.8-28.6,26.8H503.5z" />
                    <g>
                        <path d="M237.3,184.7h31.2v171.6h-31.2V184.7z" />
                        <path d="M291,197.8c0-10.6,8.4-19.3,19-19.3c10.6,0,19,8.6,19,19.3c0,10.1-8.4,19-19,19C299.4,216.8,291,208.4,291,197.8z
                             M294.3,231.2h31.2v125.1h-31.2V231.2z" />
                        <path d="M383.1,341.5h-0.4v14.8h-31.2V184.7h31.2c0,0,0,41.4-1,62.1h0.7c8.4-12,22.9-17.8,37.4-17.8c34.3,0,54.4,26,54.4,65.1
                            c0,40.7-21.6,64.7-54,64.7C404.4,358.7,391.1,352.6,383.1,341.5z M441.3,294c0-25.2-12.2-40.2-30.3-40.2c-19.2,0-30,16-30,40.2
                            c0,25.4,12.2,39.7,30.3,39.7C430.1,333.7,441.3,318,441.3,294z" />
                        <path d="M492.3,231.2h31.2v23.1h0.7c5.4-12,18.3-24,40.3-24c3.7,0,6.1,0.4,7.8,1v31.3h-1c0,0-2.8-1-10.6-1
                            c-24.2,0-37.4,14.3-37.4,41.2v53.6h-31.2L492.3,231.2L492.3,231.2z" />
                        <path d="M579.4,293.8c0-39.1,26.3-64.9,61.7-64.9c34.1,0,59.9,24.7,59.9,61.8c0,3.1,0,5.2-0.2,10.1h-88.5
                            c0,21.7,12.9,32.9,30.5,32.9c13.9,0,22.1-6.4,26-17.4h30.7c-3.3,24.7-28.2,42.3-57.5,42.3C605,358.7,579.4,330.7,579.4,293.8z
                             M669.4,280.7c-1.4-17.4-12.7-26.8-28.2-26.8c-16.7,0-27.2,10.8-28.6,26.8H669.4z" />
                    </g>
                </g>
            </g>
            <g>
                <path d="M65.6,358.7c-35.2,0-63.7-28.6-63.7-63.7s28.6-63.7,63.7-63.7s63.7,28.6,63.7,63.7S100.7,358.7,65.6,358.7z M65.6,247.8
                    c-26,0-47.2,21.2-47.2,47.2s21.2,47.2,47.2,47.2c26,0,47.2-21.2,47.2-47.2S91.6,247.8,65.6,247.8z" />
                <g>
                    <path d="M33.9,294.9c0-20.3,13.2-33.8,33-33.8c16.7,0,29.1,10.1,30.4,24.7H80.5c-1.4-7.7-6.8-11.7-13.7-11.7
                        c-10.6,0-15.7,8.2-15.7,20.8c0,14,6.1,21,15.5,21c7.7,0,12.7-4.7,13.9-11.8h16.7c-1.7,14.8-12.4,24.8-30.6,24.8
                        C46.6,328.9,33.9,315.3,33.9,294.9z" />
                </g>
            </g>
        </g>
        </symbol><symbol viewBox="0 0 8 8" fill="none" id="minus"><path d="M.6 4h6.8" /></symbol><symbol viewBox="0 0 8 8" fill="none" id="plus"><path d="M4 .6v6.8M.6 4h6.8" /></symbol><symbol viewBox="0 0 50 50" id="sparkling">
        <path d="M20.9 15.8c2.6-2.6 2.5-6.7 0-9.3a6.61 6.61 0 0 0-9.3-.1 6.64 6.64 0 0 0 0 9.4c2.6 2.6 6.7 2.6 9.3 0zM18.6 46.1c5.9 0 10.7-4.8 10.7-10.7 0-5.9-4.8-10.7-10.7-10.7S7.9 29.5 7.9 35.4c0 5.9 4.8 10.7 10.7 10.7z" style="fill:none;stroke-linecap:round;stroke-linejoin:round" />
        <path d="M34.4 32.9c4.7 0 8.6-3.9 8.6-8.6 0-4.7-3.9-8.6-8.6-8.6s-8.6 3.9-8.6 8.6c0 4.7 3.8 8.6 8.6 8.6zM38 46.7c2 0 3.6-1.6 3.6-3.6S40 39.5 38 39.5s-3.6 1.6-3.6 3.6 1.6 3.6 3.6 3.6z" style="fill:none;stroke-linecap:round;stroke-linejoin:round" />
        </symbol><symbol viewBox="0 0 20 20" fill="none" id="trash-can"><path d="M2.5 5h15M15.8 5v11.7c0 .4-.2.9-.5 1.2-.3.3-.7.5-1.2.5H5.8c-.4 0-.9-.2-1.2-.5-.3-.3-.5-.7-.5-1.2V5m2.6 0V3.3c0-.4.2-.9.5-1.2s.7-.5 1.2-.5h3.3c.4 0 .9.2 1.2.5s.5.7.5 1.2V5M8.3 9.2v5M11.7 9.2v5" style="stroke-linecap:round;stroke-linejoin:round" vector-effect="non-scaling-stroke" /></symbol><symbol viewBox="0 0 50 50" id="yerba">
        <path d="M32.1 48.6c-3.7 0-6.8-3-6.8-6.8" style="fill:none;stroke-linecap:round;stroke-miterlimit:10" />
        <path d="M25.3 30.7S33 23.3 33.7 16c.7-7.3-3.7-14.8-8.4-14.8s-9 7.4-8.4 14.8c.7 7.3 8.4 14.7 8.4 14.7z" style="fill:none;stroke-miterlimit:10" />
        <path d="M25.3 41.9s10.6.2 16.3-4.5c5.7-4.7 7.8-13.1 4.5-16.3-3.3-3.3-11.6-1.1-16.3 4.5-4.7 5.6-4.5 16.3-4.5 16.3z" style="fill:none;stroke-miterlimit:10" />
        <path d="M25.3 41.9s-10.7.2-16.3-4.5c-5.7-4.7-7.8-13.1-4.5-16.3 3.3-3.3 11.6-1.1 16.3 4.5 4.7 5.6 4.5 16.3 4.5 16.3z" style="fill:none;stroke-miterlimit:10" />
        </symbol></defs></svg>